<svg xmlns="http://www.w3.org/2000/svg" viewBox="0 0 902.34 294.5">
  <path d="M338.39 500.68h80v-30c0-4.7-5.3-10-10-10h-60c-4.7 0-10 5.3-10 10v60c0 4.7 5.3 10 10 10h60c4.7 0 10-10 10-10" style="fill:none;fill-rule:evenodd;stroke:#000;stroke-width:17.0932;stroke-linecap:butt;stroke-linejoin:miter;stroke-miterlimit:4;stroke-dasharray:none;stroke-opacity:1" transform="translate(-89.62 -256.45)"/>
  <path d="M840 462.4h70c4.7 0 10 5.3 10 10v60c0 4.7 10 10 10 10" style="fill:none;fill-rule:evenodd;stroke:#000;stroke-width:17.0932;stroke-linecap:butt;stroke-linejoin:miter;stroke-miterlimit:4;stroke-dasharray:none;stroke-opacity:1" transform="translate(-31.66 -256.45)"/>
  <path d="M920 502.4h-70c-4.7 0-10 5.3-10 10v20c0 4.7 5.3 10 10 10h60c4.7 0 10-10 10-10" style="fill:none;fill-rule:evenodd;stroke:#000;stroke-width:17.0932;stroke-linecap:butt;stroke-linejoin:miter;stroke-miterlimit:4;stroke-dasharray:none;stroke-opacity:1" transform="translate(-31.66 -256.45)"/>
  <path d="M200 362.4v184.5" style="fill:none;fill-rule:evenodd;stroke:#000;stroke-width:17.3053;stroke-linecap:butt;stroke-linejoin:miter;stroke-miterlimit:4;stroke-dasharray:none;stroke-opacity:1" transform="translate(-84.74 -258.32)"/>
  <path d="M200 372.4s5.2-10 10-10h60c4.8 0 10 5.2 10 10v60c0 4.8-5.2 10-10 10h-60c-4.8 0-10-10-10-10" style="fill:none;fill-rule:evenodd;stroke:#000;stroke-width:17.0932;stroke-linecap:butt;stroke-linejoin:miter;stroke-miterlimit:4;stroke-dasharray:none;stroke-opacity:1" transform="translate(-84.74 -258.32)"/>
  <path d="M400 362.4v80M320 362.4v70c0 4.7 5.2 10 10 10h60c4.8 0 10-10 10-10" style="fill:none;fill-rule:evenodd;stroke:#000;stroke-width:17.0932;stroke-linecap:butt;stroke-linejoin:miter;stroke-miterlimit:4;stroke-dasharray:none;stroke-opacity:1" transform="translate(-71.24 -258.32)"/>
  <path d="M525.08 370.53s-5.3-10-10-10h-60c-4.7 0-10 5.3-10 10v20c0 4.7 5.3 10 10 10h60c4.7 0 10 5.3 10 10v20c0 4.7-5.3 10-10 10h-60c-4.7 0-10-10-10-10" style="fill:none;fill-rule:evenodd;stroke:#000;stroke-width:17.0932;stroke-linecap:butt;stroke-linejoin:miter;stroke-miterlimit:4;stroke-dasharray:none;stroke-opacity:1" transform="translate(-89.62 -256.45)"/>
  <path d="M99.95 446.57V348.7c10.02-29.37 40.05-78.31 40.05-78.31s32.04 48.94 40.05 78.3v97.9" style="fill:none;fill-rule:evenodd;stroke:#000;stroke-width:16.9214;stroke-linecap:butt;stroke-linejoin:miter;stroke-miterlimit:4;stroke-dasharray:none;stroke-opacity:1" transform="translate(-91.5 -254.58)"/>
  <path d="M100 362.4h80" style="fill:none;fill-rule:evenodd;stroke:#000;stroke-width:17.0932;stroke-linecap:butt;stroke-linejoin:miter;stroke-miterlimit:4;stroke-dasharray:none;stroke-opacity:1" transform="translate(-91.5 -254.58)"/>
  <path d="M520 362.4v184.72M599.9 547.12v-71.84c0-4.82-5.2-10.26-10-10.26h-60c-4.8 0-10 10.26-10 10.26" style="fill:none;fill-rule:evenodd;stroke:#000;stroke-width:17.3158;stroke-linecap:butt;stroke-linejoin:miter;stroke-miterlimit:4;stroke-dasharray:none;stroke-opacity:1" transform="translate(-58.74 -256.06)"/>
  <path d="M620.09 462.58v84.6M699.91 547.08v-74.03c0-4.98-5.19-10.58-9.98-10.58h-59.86c-4.8 0-9.98 10.58-9.98 10.58" style="fill:none;fill-rule:evenodd;stroke:#000;stroke-width:17.5595;stroke-linecap:butt;stroke-linejoin:miter;stroke-miterlimit:4;stroke-dasharray:none;stroke-opacity:1" transform="translate(-51.9 -255.55)"/>
  <path d="M525.08 471.26s-5.3-10-10-10h-60c-4.7 0-10 5.3-10 10v60c0 4.7 5.3 10 10 10h60c4.7 0 10-10 10-10M872.27 471.83s-5.3-10-10-10h-60c-4.7 0-10 5.3-10 10v60c0 4.7 5.3 10 10 10h60c4.7 0 10-10 10-10" style="fill:none;fill-rule:evenodd;stroke:#000;stroke-width:17.0932;stroke-linecap:butt;stroke-linejoin:miter;stroke-miterlimit:4;stroke-dasharray:none;stroke-opacity:1" transform="translate(-89.62 -256.45)"/>
  <path d="M311.64 262.9v284.04" style="fill:none;fill-rule:evenodd;stroke:#000;stroke-width:17.2162;stroke-linecap:butt;stroke-linejoin:miter;stroke-miterlimit:4;stroke-dasharray:none;stroke-opacity:1" transform="translate(-89.62 -256.45)"/>
  <path d="M241.64 276.76s5.3-10 10-10h120c4.7 0 10 10 10 10" style="fill:none;fill-rule:evenodd;stroke:#000;stroke-width:17.0932;stroke-linecap:butt;stroke-linejoin:miter;stroke-miterlimit:4;stroke-dasharray:none;stroke-opacity:1" transform="translate(-89.62 -256.45)"/>
  <path d="M720 462.4v85.15" style="fill:none;fill-rule:evenodd;stroke:#000;stroke-width:17.635;stroke-linecap:butt;stroke-linejoin:miter;stroke-miterlimit:4;stroke-dasharray:none;stroke-opacity:1" transform="translate(-44.79 -255.34)"/>
  <path d="m720.13 434.52.35 18.28" style="fill:none;fill-rule:evenodd;stroke:#000;stroke-width:17.6347;stroke-linecap:butt;stroke-linejoin:miter;stroke-miterlimit:4;stroke-dasharray:none;stroke-opacity:1" transform="translate(-44.79 -255.34)"/>
</svg>
